<?xml version="1.0" standalone="no"?>
<!DOCTYPE svg PUBLIC "-//W3C//DTD SVG 20010904//EN"
 "http://www.w3.org/TR/2001/REC-SVG-20010904/DTD/svg10.dtd">
<svg version="1.0" xmlns="http://www.w3.org/2000/svg"
 width="2000.000000pt" height="2250.000000pt" viewBox="0 0 2000.000000 2250.000000"
 preserveAspectRatio="xMidYMid meet">

<g transform="translate(0.000000,2250.000000) scale(0.100000,-0.100000)"
fill="#000000" stroke="none">
<path d="M9730 21434 c-845 -314 -1021 -385 -1285 -519 -187 -95 -364 -201
-489 -292 -48 -35 -91 -62 -94 -58 -3 3 2 79 12 169 25 232 12 273 -84 264
-63 -6 -84 -22 -335 -261 -205 -194 -304 -275 -393 -322 -77 -40 -115 -46
-195 -29 -88 18 -266 18 -354 0 -379 -80 -735 -399 -868 -778 l-27 -77 -57 -8
c-84 -12 -299 -7 -446 11 -153 19 -303 20 -377 5 -88 -19 -161 -64 -316 -193
-325 -273 -758 -683 -1358 -1287 -417 -421 -397 -392 -509 -718 -36 -107 -79
-220 -95 -251 -95 -188 -402 -505 -1093 -1130 -77 -69 -290 -302 -380 -414
-321 -403 -529 -894 -672 -1588 -50 -242 -95 -507 -165 -983 -61 -409 -108
-695 -134 -823 l-15 -67 114 -215 c372 -703 602 -1322 719 -1935 57 -301 58
-345 2 -401 -41 -41 -99 -51 -175 -31 l-53 15 5 -282 c5 -282 15 -382 53 -514
26 -91 182 -457 528 -1236 371 -834 515 -1170 645 -1511 102 -264 217 -588
257 -722 l28 -93 35 0 c49 0 131 -40 187 -92 97 -89 142 -193 184 -423 28
-149 87 -358 139 -491 199 -509 508 -834 926 -973 148 -50 277 -63 510 -54
373 14 613 -47 799 -205 172 -145 333 -236 537 -303 194 -64 299 -81 504 -85
l180 -3 100 -54 c55 -30 271 -142 480 -249 554 -285 781 -412 1020 -572 77
-51 96 -60 135 -60 56 1 103 24 127 64 9 16 21 30 25 30 19 0 28 -59 28 -185
l0 -135 28 5 c55 10 342 45 527 65 871 93 1493 91 2059 -6 129 -23 311 -65
453 -106 36 -10 51 -9 116 10 320 93 618 28 1065 -231 l131 -77 113 -6 c106
-6 115 -5 141 16 33 26 36 67 8 139 l-18 48 67 37 c37 20 114 51 172 70 140
46 591 139 642 133 47 -7 94 -43 164 -128 152 -185 209 -234 295 -253 l27 -6
0 163 c0 197 13 254 70 308 59 56 104 64 336 61 l201 -3 -1 173 c-1 169 0 174
26 228 18 36 50 75 93 113 36 32 154 156 264 275 297 325 423 441 578 537 47
28 66 35 75 27 7 -6 78 -83 158 -170 160 -176 167 -179 157 -68 -7 69 -29 139
-77 239 -23 49 -58 96 -129 170 -53 56 -103 117 -110 135 -13 31 -12 35 7 54
11 12 96 46 199 80 270 90 365 90 495 0 29 -21 59 -41 66 -46 7 -4 -1 14 -17
41 -41 66 -58 134 -43 167 15 34 81 80 151 107 47 18 85 23 241 28 165 6 190
9 232 29 58 29 113 89 143 157 29 64 55 186 55 255 l0 50 223 268 c347 417
480 593 692 917 381 582 719 1251 1010 2000 42 110 80 204 83 210 10 16 -54
-28 -146 -100 -209 -166 -392 -368 -558 -617 -103 -154 -152 -210 -201 -229
-54 -20 -126 -5 -175 39 -21 18 -14 36 -98 -236 -35 -111 -65 -201 -67 -199
-1 2 3 82 11 178 8 96 13 175 12 177 -2 1 -106 -78 -232 -176 -1205 -937
-2109 -1599 -2994 -2189 -386 -257 -537 -352 -629 -397 -74 -35 -93 -40 -155
-40 -49 -1 -81 5 -103 17 -47 25 -107 91 -134 147 -13 27 -26 49 -29 50 -3 0
-57 -45 -120 -101 -127 -110 -172 -139 -223 -139 -53 0 -80 36 -85 115 -2 35
1 78 6 95 l11 31 -37 -8 c-20 -4 -66 -6 -102 -3 -36 2 -96 5 -133 5 -66 0 -70
-1 -102 -36 -18 -20 -43 -64 -55 -97 -24 -65 -51 -98 -73 -89 -7 3 -27 31 -45
64 -38 72 -65 99 -79 81 -6 -7 -21 -83 -33 -168 -28 -191 -35 -212 -43 -136
-10 100 -47 129 -109 84 -35 -25 -108 -132 -108 -160 0 -10 -3 -18 -7 -18 -5
0 -44 55 -88 121 -44 67 -117 160 -162 208 l-82 86 29 -71 c53 -128 63 -258
22 -272 -7 -2 -31 14 -52 37 -22 23 -41 41 -43 41 -2 0 -7 -37 -11 -82 -15
-190 -14 -187 -60 -210 -22 -11 -91 -69 -152 -128 -61 -60 -125 -115 -143
-124 -21 -11 -89 -22 -204 -31 -358 -31 -728 -91 -1006 -164 l-114 -30 -221
54 c-655 159 -1367 276 -2016 330 -102 8 -239 20 -305 26 -436 37 -845 157
-1265 372 -147 75 -410 227 -410 238 0 3 17 11 38 17 122 39 224 185 207 299
-8 55 -18 60 -38 19 -36 -76 -128 -117 -359 -162 l-147 -28 -193 190 c-246
241 -423 408 -1113 1050 -1009 938 -1449 1376 -1916 1910 -251 286 -327 431
-649 1234 -67 168 -147 356 -176 418 l-53 113 -43 -45 c-90 -93 -172 -67 -243
77 -51 105 -62 156 -47 213 34 128 129 165 232 89 19 -14 34 -25 35 -25 1 0
-45 323 -101 718 -57 394 -103 748 -104 786 0 109 24 186 130 406 54 113 106
227 115 255 10 30 67 515 151 1273 73 673 143 1279 155 1346 143 845 475 1603
1014 2321 315 419 747 874 1390 1465 171 156 376 346 456 421 230 214 298 262
699 494 135 78 387 226 560 329 606 362 803 473 1118 631 517 258 989 424
1477 519 372 73 650 97 1075 94 416 -4 554 0 628 17 174 41 267 145 293 331 9
65 6 410 -4 420 -1 1 -28 -4 -59 -12 -45 -12 -70 -13 -114 -5 -76 14 -130 46
-259 153 -60 50 -134 106 -163 125 -50 32 -161 80 -207 89 -11 2 -76 -17 -145
-42z m-8056 -12990 c43 -45 94 -142 186 -358 86 -204 121 -276 167 -339 19
-27 32 -51 29 -54 -11 -11 -174 85 -216 127 -62 61 -81 106 -97 228 -15 120
-49 214 -123 339 -28 47 -50 87 -50 89 0 2 16 4 35 4 26 0 42 -8 69 -36z
m-272 -1 c13 -15 138 -402 138 -427 0 -4 -48 52 -106 125 -59 74 -120 148
-136 166 -25 26 -29 36 -23 62 7 34 66 91 94 91 10 0 25 -8 33 -17z"/>
<path d="M12975 20821 c-298 -8 -321 -13 -397 -80 -42 -37 -93 -113 -104 -154
-5 -21 -11 -27 -23 -23 -9 3 -49 17 -90 31 -67 24 -87 26 -215 25 -216 -1
-362 -14 -428 -39 -188 -72 -295 -265 -254 -461 22 -105 67 -180 172 -285 287
-289 755 -469 1283 -494 l156 -7 155 -88 c718 -410 1270 -777 2564 -1705 748
-537 934 -667 979 -686 98 -41 255 -4 471 110 67 36 132 65 142 65 19 0 20 -8
20 -182 -1 -284 35 -439 192 -844 110 -281 134 -331 210 -425 70 -87 124 -134
250 -218 287 -192 405 -412 404 -756 0 -152 -20 -277 -66 -413 l-25 -73 79
-157 c131 -260 250 -456 378 -622 98 -126 297 -326 374 -376 89 -58 101 -82
104 -210 6 -272 151 -327 296 -114 l17 25 0 -30 c1 -16 -12 -140 -28 -275 -49
-407 -55 -486 -55 -725 0 -221 12 -346 43 -450 l8 -30 6 35 c3 19 13 123 22
230 57 684 182 1321 342 1748 19 52 32 96 30 99 -10 9 -83 -36 -118 -74 -20
-21 -55 -69 -79 -108 -68 -111 -117 -155 -175 -155 l-25 0 0 253 c0 502 -30
849 -160 1862 -27 209 -54 427 -61 485 l-12 104 -1015 1626 c-559 894 -1036
1650 -1060 1680 -24 30 -100 116 -168 192 -611 669 -1503 1211 -2499 1518
-295 91 -483 133 -710 160 -119 15 -593 20 -930 11z"/>
<path d="M5570 11250 l0 -5620 645 0 645 0 0 2375 0 2375 1173 0 c695 0 1221
-4 1292 -10 385 -32 702 -112 935 -236 133 -71 235 -149 370 -284 138 -138
252 -284 355 -455 37 -62 503 -933 1036 -1936 l968 -1824 716 -3 c393 -1 715
-1 715 1 0 5 -1957 3663 -2017 3770 -172 308 -416 613 -622 779 -169 136 -372
251 -571 322 -52 19 -88 37 -80 39 8 3 58 13 110 22 1440 248 2370 1052 2639
2283 53 240 72 417 78 728 14 672 -86 1187 -322 1669 -255 519 -659 914 -1220
1190 -502 248 -1048 379 -1770 425 -101 6 -1057 10 -2617 10 l-2458 0 0 -5620z
m5080 4517 c311 -37 563 -91 785 -167 646 -223 1044 -663 1189 -1312 49 -222
60 -333 61 -628 0 -292 -9 -397 -51 -607 -184 -914 -827 -1427 -1954 -1557
-282 -33 -540 -37 -2185 -34 l-1630 3 -3 2163 -2 2163 1822 -4 c1652 -3 1837
-5 1968 -20z"/>
</g>
</svg>
